<?xml version="1.0" encoding="utf-8"?>
<!-- Generator: Adobe Illustrator 25.0.1, SVG Export Plug-In . SVG Version: 6.00 Build 0)  -->
<svg version="1.0" id="katman_1" xmlns="http://www.w3.org/2000/svg" xmlns:xlink="http://www.w3.org/1999/xlink" x="0px" y="0px"
	 viewBox="0 0 560 400" style="enable-background:new 0 0 560 400;" xml:space="preserve">
<style type="text/css">
	.st0{fill-rule:evenodd;clip-rule:evenodd;fill:#D20A0A;}
</style>
<path class="st0" d="M157.3,274.5H91.6c-6.5-0.4-13.1-1.9-18.5-5.7c-3.5-2.4-6.4-6-7.6-10.1c-0.6-1.8-0.5-3.7-0.4-5.5
	c0-2.2,0.8-4.3,1.3-6.4c11.2-40.4,22.4-80.9,33.6-121.3l-0.3,0h51.1c-10.1,36.5-20.2,72.9-30.4,109.4c-0.4,1.3-0.4,2.8,0.4,4
	c1.3,2,3.7,2.7,6,2.8c2.7,0.1,5.3,0,8,0c2.9,0,5.9,0.1,8.6-1c1.9-0.7,3.1-2.6,3.6-4.5c10.3-36.9,20.5-73.9,30.8-110.8h50.8
	c-10.8,38.8-21.5,77.6-32.3,116.4c-1.2,4.1-2.3,8.3-3.5,12.4c-1.6,5-4.1,9.9-8.2,13.2c-3,2.6-6.8,4-10.6,4.9
	C168.4,273.8,162.8,274.1,157.3,274.5L157.3,274.5z M262.3,274.5h-51.1c8.7-31.2,17.3-62.5,26-93.7c36.6,0,73.2,0,109.7,0
	c-3,10.9-6.1,21.9-9.1,32.8c-19.7,0-39.3,0-59,0l-16.9,60.9L262.3,274.5z M457.8,274.5h-83.4c-6.2-0.4-12.6-1.8-17.9-5.2
	c-3.5-2.2-6.4-5.5-7.8-9.4c-1.3-3.4-1.2-7.1-0.2-10.6c9.4-34,18.8-67.9,28.3-101.9c1.4-5,3.5-9.9,7.2-13.6c2.4-2.5,5.5-4.3,8.8-5.4
	c6.1-2,12.5-2.5,18.9-3H495c-1.2,5-2.7,9.8-4,14.8c-1.7,6-3.3,12-5,18c-18,0-36,0-54,0c-2.6,0-5.4,0-7.9,1c-2,0.9-3.1,3-3.6,5
	c-6.6,23.7-13.1,47.4-19.7,71.1c-0.5,1.5-0.1,3.2,1,4.2c1.6,1.6,4,2.2,6.2,2.2l58.8,0C463.9,252.7,460.9,263.6,457.8,274.5
	L457.8,274.5z M252.5,125.5h109.7c-3,10.9-6.1,21.8-9.1,32.7c-36.6,0-73.1,0-109.7,0C246.5,147.3,249.5,136.4,252.5,125.5
	L252.5,125.5z"/>
</svg>
